<svg data-v-0dd9719b="" version="1.0" xmlns="http://www.w3.org/2000/svg" xmlns:xlink="http://www.w3.org/1999/xlink" width="100%" height="100%" viewBox="0 0 340.000000 250.000000" preserveAspectRatio="xMidYMid meet" color-interpolation-filters="sRGB" style="margin: auto;"> <rect data-v-0dd9719b="" x="0" y="0" width="100%" height="100%" fill="#ffffff" fill-opacity="1" class="background"></rect> <rect data-v-0dd9719b="" x="0" y="0" width="100%" height="100%" fill="url(#watermark)" fill-opacity="1" class="watermarklayer"></rect> <g data-v-0dd9719b="" fill="#ce1f6a" class="icon-text-wrapper icon-svg-group iconsvg" transform="translate(46.5,90.365966796875)"><g class="iconsvg-imagesvg" transform="translate(0,0)"><g><rect fill="#ce1f6a" fill-opacity="0" stroke-width="2" x="0" y="0" width="59.99999999999999" height="69.26806742091895" class="image-rect"></rect> <svg filter="url(#colors1135701480)" x="0" y="0" width="59.99999999999999" height="69.26806742091895" filtersec="colorsf724013515" class="image-svg-svg primary" style="overflow: visible;"><svg xmlns="http://www.w3.org/2000/svg" viewBox="0.7000000000000002 0.7000000000000002 102.40001 117.6"><path d="M8.9 41.8L2.7 31.1l36.4-21 38.4 22.4v54.2m10.7-35.9L41.3 23.7 2.7 45.8v42.1H15m47.6-64.2l-47 27.1-.2 44.5 36.4 21 6.2-10.7M26.2 32.4v54.2L64.6 109 101 88l-6.2-10.7m-79.2-9.1l46.9 27.1 38.6-22.1V31.1H88.8M41.3 95.3l46.9-27.1.2-44.5L52 2.7l-6.2 10.7" fill="none" stroke="#202121" stroke-width="4" stroke-miterlimit="10"></path></svg></svg> <defs><filter id="colors1135701480"><feColorMatrix type="matrix" values="0 0 0 0 0.8046875  0 0 0 0 0.12109375  0 0 0 0 0.4140625  0 0 0 1 0" class="icon-fecolormatrix"></feColorMatrix></filter> <filter id="colorsf724013515"><feColorMatrix type="matrix" values="0 0 0 0 0.99609375  0 0 0 0 0.99609375  0 0 0 0 0.99609375  0 0 0 1 0" class="icon-fecolormatrix"></feColorMatrix></filter> <filter id="colorsb3061805078"><feColorMatrix type="matrix" values="0 0 0 0 0  0 0 0 0 0  0 0 0 0 0  0 0 0 1 0" class="icon-fecolormatrix"></feColorMatrix></filter></defs></g></g> <g transform="translate(67,22.459033012390137)"><g data-gra="path-name" fill-rule="" class="tp-name iconsvg-namesvg"><g transform="scale(1)"><g><path d="M2.55-24.35L0 0 3.48 0 5.44-18.65 16.69 0 20.17 0 22.69-24.35 19.24-24.35 17.35-6.3 6.37-24.35 2.55-24.35ZM42.5-24.35L25.32-24.35 22.69 0 39.88 0 42.5-24.35ZM26.61-3.42L28.44-20.94 38.69-20.94 36.83-3.42 26.61-3.42ZM45.06-24.35L42.5 0 45.99 0 47.94-18.65 59.19 0 62.68 0 65.2-24.35 61.75-24.35 59.86-6.3 48.87-24.35 45.06-24.35ZM67.72-24.35L65.2 0 68.65 0 69.81-11.15 81.56-11.15 81.92-14.6 70.18-14.6 70.87-20.94 83.48-20.94 84.64-24.35 67.72-24.35ZM84.64 0L88.09 0 90.68-24.35 87.16-24.35 84.64 0ZM93.24-24.35L90.68 0 107.1 0 108.27-3.42 94.5-3.42 96.35-20.94 110.09-20.94 110.46-24.35 93.24-24.35ZM119.38-20.94L117.16 0 120.67 0 122.86-20.94 131.16-20.94 131.46-24.35 111.48-24.35 111.12-20.94 119.38-20.94ZM131.46 0L134.91 0 137.5-24.35 133.98-24.35 131.46 0ZM157.31-24.35L140.12-24.35 137.5 0 154.68 0 157.31-24.35ZM141.41-3.42L143.24-20.94 153.49-20.94 151.63-3.42 141.41-3.42ZM159.86-24.35L157.31 0 160.79 0 162.75-18.65 173.99 0 177.48 0 180-24.35 176.55-24.35 174.66-6.3 163.68-24.35 159.86-24.35Z" transform="translate(0, 24.350000381469727)"></path></g> <!----> <!----> <!----> <!----> <!----> <!----> <!----></g></g> <!----></g></g><defs v-gra="od"></defs></svg>